<?xml version="1.0" standalone="no"?>
<!DOCTYPE svg PUBLIC "-//W3C//DTD SVG 20010904//EN"
 "http://www.w3.org/TR/2001/REC-SVG-20010904/DTD/svg10.dtd">
<svg version="1.0" xmlns="http://www.w3.org/2000/svg"
 width="256.000000" height="256.000000" viewBox="0 0 256.000000 256.000000"
 preserveAspectRatio="xMidYMid meet">
<g transform="translate(0.000000,256.000000) scale(0.050000,-0.048762)"
fill="#ffffff" stroke="none">
<path d="M1430 4896 c-158 -43 -283 -170 -326 -331 -11 -40 -14 -269 -14
-1185 0 -1227 -2 -1178 55 -1289 50 -99 177 -201 280 -225 17 -4 38 -9 47 -12
13 -4 21 5 32 30 23 55 100 131 159 156 148 64 322 -4 393 -153 l18 -37 273 0
273 0 14 35 c23 54 100 130 159 155 144 62 328 -8 392 -149 16 -36 21 -40 44
-35 221 47 371 229 371 451 l0 73 -990 0 -990 0 0 1045 0 1045 263 0 263 0 54
-56 c30 -30 121 -119 203 -196 l147 -140 0 416 0 416 -537 -1 c-392 0 -550 -4
-583 -13z"/>
<path d="M3070 4125 l0 -785 -263 0 -262 0 -95 96 c-52 52 -143 141 -202 196
l-108 100 0 -416 0 -416 539 0 c501 0 544 1 600 19 146 45 262 164 305 310 14
47 16 138 16 676 0 538 -2 629 -16 676 -57 196 -235 329 -440 329 l-74 0 0
-785z"/>
<path d="M814 1096 c-212 -99 -217 -399 -9 -502 48 -23 64 -26 138 -23 72 4
90 8 132 34 27 17 50 35 52 40 2 6 -23 21 -55 33 -48 19 -64 22 -100 14 -48
-11 -96 -3 -135 23 -25 16 -47 44 -47 59 0 3 92 6 204 6 l204 0 7 30 c24 108
-59 248 -171 290 -75 28 -155 26 -220 -4z m179 -107 c32 -17 77 -61 77 -76 0
-10 -31 -13 -140 -13 -109 0 -140 3 -140 13 0 14 43 58 75 75 26 15 100 15
128 1z"/>
<path d="M1988 1096 c-46 -24 -48 -24 -48 -6 0 18 -7 20 -60 20 l-60 0 0 -265
0 -265 60 0 60 0 0 171 0 171 39 39 c33 33 45 39 82 39 55 0 101 -27 122 -73
14 -28 17 -66 17 -191 l0 -156 61 0 61 0 -4 183 c-3 180 -3 182 -33 237 -44
79 -97 114 -183 117 -56 3 -75 -1 -114 -21z"/>
<path d="M2543 1104 c-54 -20 -119 -83 -145 -142 -28 -65 -29 -171 -1 -233 28
-62 72 -110 128 -138 40 -20 58 -23 130 -20 46 2 86 7 90 10 3 4 -3 28 -14 55
-20 52 -17 51 -110 53 -49 1 -116 70 -126 129 -9 54 25 127 74 159 64 43 161
24 213 -42 22 -28 23 -39 26 -192 l3 -163 60 0 59 0 0 265 0 265 -60 0 c-53 0
-60 -2 -60 -20 0 -11 -1 -20 -2 -20 -2 0 -25 11 -52 25 -58 29 -145 33 -213 9z"/>
<path d="M3183 1090 l-53 -30 0 25 c0 24 -3 25 -60 25 l-60 0 0 -265 0 -265
60 0 60 0 0 170 c0 181 8 217 49 240 36 19 83 12 113 -17 l28 -27 0 -183 0
-183 60 0 60 0 0 164 c0 90 5 177 11 194 29 85 147 82 180 -5 5 -13 9 -98 9
-189 l0 -164 61 0 61 0 -3 198 c-4 186 -5 200 -29 247 -14 28 -40 60 -59 72
-61 41 -180 26 -238 -29 l-23 -22 -35 34 c-28 27 -44 34 -87 37 -45 3 -61 -1
-105 -27z"/>
<path d="M3975 1096 c-170 -79 -209 -321 -73 -456 49 -50 102 -70 185 -70 110
0 116 5 86 77 -17 41 -18 41 -68 41 -92 -1 -154 53 -163 142 -8 91 65 170 157
170 54 0 93 -20 128 -67 28 -36 28 -39 31 -195 l4 -158 59 0 59 0 0 265 0 265
-60 0 c-53 0 -60 -2 -60 -20 0 -25 3 -25 -62 5 -71 33 -154 34 -223 1z"/>
<path d="M1300 960 l0 -60 205 0 205 0 0 60 0 60 -205 0 -205 0 0 -60z"/>
<path d="M2246 347 c-28 -21 -33 -96 -8 -127 17 -22 23 -23 46 -12 24 11 26
10 26 -11 0 -44 -48 -64 -70 -29 -10 15 -10 15 -8 -3 2 -14 12 -21 33 -23 45
-6 55 17 55 127 0 64 -3 91 -10 81 -7 -12 -12 -12 -22 -2 -15 15 -20 15 -42
-1z"/>
</g>
</svg>
